<?xml version="1.0" encoding="UTF-8"?><svg xmlns="http://www.w3.org/2000/svg" width="3840" height="2188.3262" viewBox="0 0 3840 2188.3262"><defs><style>.cls-1{fill:none;stroke:#000;stroke-linecap:round;stroke-linejoin:round;stroke-width:45px;}</style></defs><g id="Calque_2"><path class="cls-1" d="M861.3781,505.6877s63.2469-103.8804,162.635-302.6817S1358.3183,17.7828,1529.9885,26.8181s618.9164-9.0353,867.3865,36.1411,456.2814,90.3528,578.2577,230.3995,0,162.635,153.5997,262.023,94.8704,356.8934,72.2822,402.0698-117.4586,121.9762-99.388,393.0345,49.694,478.8696,4.5176,582.7753-131.0115,249.5576-316.2347,230.9433-402.0698-9.579-555.6695-59.273-447.2462-135.5291-560.1871-207.8113-456.2814-185.2232-528.5636-262.023-212.329-234.9172-284.6112-383.9992-289.1288-221.3643-280.0936-397.5521,234.9172-269.0336,280.0936-347.8581Z"/><path class="cls-1" d="M874.931,1020.6984s-76.7998-108.4233-31.6235-234.9172,176.1879-144.5644,252.9877-131.0115,121.9762,99.388,266.5406,108.4233,225.8819-70.8441,252.9877-112.2219"/><path class="cls-1" d="M1724.2469,469.5466s-85.8351-36.1411-230.3995,0-185.2232,131.0115-131.0115,131.0115,203.2937-36.1411,334.3052,0,198.7761,94.8704,266.5406,31.6235-126.681-146.6185-239.4348-162.635Z"/><path class="cls-1" d="M2560.01,514.723s-81.3175-10.6679-180.7055,42.1013-171.6702,34.6986-144.5644,61.8044,63.2469,36.1411,221.3643,0,275.5759-10.6679,252.9877-61.8044-149.0821-42.1013-149.0821-42.1013Z"/><path class="cls-1" d="M2618.7392,772.2283s54.2117,76.7998,131.0115,36.1411,94.8704-148.2048,252.9877-35.9921"/><path class="cls-1" d="M933.6603,912.2751s117.4586-103.9057,131.0115,0c3.3882,25.9764,14.6823,59.5763,30.7764,96.7057,5.9915,13.8224,12.6481,28.1339,19.8098,42.7234,50.5508,102.9799,126.2614,219.8059,170.778,276.1936,67.7646,85.8351,361.411,257.5054,510.4931,293.6465s650.5399,67.7646,822.2101,31.6235,266.5406-72.2822,307.1994-252.9877,45.1764-352.3758,0-429.1756-40.6587-196.2663-63.2469-104.9096-49.694,258.5093-302.6817,290.1327-489.7735,4.5176-653.733-36.1411c-163.9595-40.6587-642.8291-189.7408-728.6642-243.9524s-162.635,52.764-103.9057-104.6295"/><path class="cls-1" d="M1095.4482,1008.9808s249.3171,161.8702,475.199,225.1172,611.4429,152.5997,899.7908,120.9762,404.9041-97.896,486.2216-164.4029"/><path class="cls-1" d="M1366.9795,953.9943s5.1768,126.7514,36.5151,179.6451,60.0579,64.3718,60.0579,64.3718"/><line class="cls-1" x1="1792.0115" y1="1094.1631" x2="1741.2427" y2="1278.3174"/><line class="cls-1" x1="2098.7434" y1="1155.3593" x2="2098.7434" y2="1344.9351"/><line class="cls-1" x1="2343.1648" y1="1170.0296" x2="2370.3055" y2="1361.3484"/><line class="cls-1" x1="2618.7392" y1="1145.5991" x2="2644.2548" y2="1328.7174"/><line class="cls-1" x1="2749.7602" y1="1084.2045" x2="2792.0011" y2="1286.8011"/><polyline class="cls-1" points="2902.4801 1228.8662 2810.7389 1013.8006 2958.0085 1155.3593"/><line class="cls-1" x1="2848.2639" y1="923.3243" x2="2947.8045" y2="1030.4864"/><path class="cls-1" d="M1319.0166,1361.6492s70.9252-44.6882,66.4075-111.502-10.2371-89.468-10.2371-89.468"/><path class="cls-1" d="M1637.4231,1560.3656s84.565-81.127,82.3061-164.7033-38.3905-129.9734-38.3905-129.9734c0,0,341.3285,179.781,752.4336,157.1928s509.2015-110.5525,509.2015-110.5525"/><line class="cls-1" x1="2037.9728" y1="1653.8498" x2="2055.6407" y2="1394.4451"/><line class="cls-1" x1="2304.6773" y1="1668.2109" x2="2343.1648" y2="1424.9085"/><line class="cls-1" x1="2485.6913" y1="1667.0512" x2="2557.7393" y2="1413.612"/><line class="cls-1" x1="2644.2548" y1="1647.6499" x2="2711.879" y2="1394.4451"/><path class="cls-1" d="M2810.7389,1588.168s5.4421-47.8998-18.7377-67.1205,62.7847-166.0441,62.7847-166.0441"/><path class="cls-1" d="M2264.6694,617.4992s77.9293,1.6941,132.1409-28.7999,88.881-22.0235,88.881-22.0235"/><path class="cls-1" d="M1495.5415,513.8387s35.5764,18.9548,27.1058,35.896,45.7411-10.1647,93.1763,0,71.1528,18.951,64.3763-15.0892,4.2344-45.8989-42.7768-45.8989-177.458,7.8314-141.8816,25.0921Z"/><path class="cls-1" d="M1945.9047,869.9222s-81.0463,5.0823-97.9874,38.9646-23.7176,74.8234,6.7765,100.0939,18.6353,11.7176,18.6353,11.7176"/><path class="cls-1" d="M1958.0347,991.8985s1.6941-23.7176,54.2117-22.0235,86.497,10.9684,86.497,10.9684"/><path class="cls-1" d="M2235.8694,1061.3571s38.4029,50.8234,107.2954,0,87.5277-106.4876,116.3277-114.2319,64.3763-12.8267,18.6353-34.8501-73.3738-53.6158-121.3926-92.0313-32.8141-178.6008-32.8141-178.6008"/><path class="cls-1" d="M1541.2826,513.8387s-3.3882,18.9548,16.9411,18.9548,60.1402-5.0823,79.1994,0,28.376-12.498,0-18.9548-113.0817-18.9548-96.1406,0Z"/></g><g id="Calque_4"><path class="cls-1" d="M1088.107,889.7935s5.0823,63.6185,37.2705,91.05,266.3088,187.8607,260.2535,149.4077-19.1793-154.559-60.3481-176.2568-230.6159-121.6213-237.176-64.2008Z"/><path class="cls-1" d="M1571.2321,1048.4556s-154.6977-69.1346-170.1397-56.5908-25.2168,52.1793,0,89.9614,30.0201,66.5821,74.2066,83.5232,61.1276,27.6592,126.351,42.6296,122.6515,43.1076,139.5926,12.3368,23.8894-107.9794-3.2165-124.6728-102.4881-20.0816-166.7941-47.1875Z"/><path class="cls-1" d="M1776.3462,1164.1334s-25.8132,65.6844-9.7191,86.0138,85.6912,10.2133,153.3729,28.1702,135.4369,51.8392,146.4533,19.651,27.9482-93.0096,0-111.7282-137.4823-40.7938-176.7423-50.0697c-50.2709-11.8774-97.6995-14.8372-113.3648,27.9629Z"/><path class="cls-1" d="M2133.3755,1203.098s-20.3294,87.6767,0,108.2147,49.1293,10.8832,110.1174,17.4047,93.1363,16.269,95.6974-17.4047-2.0743-91.2736-17.5448-108.2147-56.1292-8.3039-120.5055-16.8578-67.7646,16.8578-67.7646,16.8578Z"/><path class="cls-1" d="M2380.7162,1219.9131s0,83.1377,16.9411,101.7729,182.1429,9.6259,211.7643-10.3733-1.7744-130.2382-20.3695-133.6264-221.8888-8.7227-208.3359,42.2268Z"/><path class="cls-1" d="M2651.7745,1175.6603s-10.0974,118.9199,26.2924,118.9199,95.0261-9.2427,92.8138-44.433-13.3847-116.7228-49.9299-121.6338-69.1763,47.1469-69.1763,47.1469Z"/><path class="cls-1" d="M2787.7544,1103.1453s-.4508,122.3321,28.3491,134.013,46.3058,1.5162,42.6352-37.4485-24.5647-130.4468-47.9999-128.7527-22.9845,32.1882-22.9845,32.1882Z"/><path class="cls-1" d="M2884.3737,1128.5134s1.1885,55.985,26.6003,55.9672-26.6003-55.9672-26.6003-55.9672Z"/><path class="cls-1" d="M2854.7858,1008.9808s-5.483,7.7647,29.5879,43.3411,64.0407,53.2222,58.6002,10.1647-77.5728-132.2248-84.2351-70.5881"/><path class="cls-1" d="M1154.1775,1094.1631s118.588,223.7175,155.8585,217.1497,52.3875-72.6474,42.2878-113.3016-247.2756-167.606-198.1463-103.8481Z"/><path class="cls-1" d="M1401.5182,1234.1253s-11.4774,123.4401-34.5387,127.5239,114.162,70.1542,186.1619,122.6718,92.3292,64.3763,121.1292,0,15.2833-171.1055-18.8908-188.0467-269.7486-166.0232-253.8616-62.149Z"/><path class="cls-1" d="M1857.8388,1361.3484s-60.4893-15.6898-96.4944-32.631-24.2824,3.1333-20.1017,74.2861-11.0663,104.836-36.478,125.2649-35.9226,37.3701,56.5797,57.6994,229.7256,52.5175,244.9726,23.7176,23.855-128.4434,22.0721-166.0232c-2.3351-49.2171-170.5503-82.3139-170.5503-82.3139Z"/><path class="cls-1" d="M2066.4533,1471.5857s-9.2588,86.4044,0,138.0998,73.6987,40.8936,136.3809,44.1644,75.6704-27.6042,91.1998-93.4842,31.9058-101.4564,0-113.3152-199.6234-72.8469-227.5807,24.5352Z"/><path class="cls-1" d="M1958.0347,1344.9351s454.5872,97.8265,752.6802,16.4133c207.2528-56.6035,232.259-101.4928,232.259-101.4928"/><path class="cls-1" d="M2425.0455,1447.0505s-35.0717,5.0823-49.8652,16.9411-16.4876,48.7483-24.9582,96.374-16.9411,84.5899,0,87.2842,101.5145,23.0237,120.2159-15.9409,93.2425-181.4585,61.0543-189.7408-106.4468,5.0823-106.4468,5.0823Z"/><path class="cls-1" d="M2567.0688,1489.4033s-32.1882,99.1332-33.8823,131.7312,81.4213,8.8803,98.3105-6.3667,44.0623-156.1905,46.5699-175.5068-49.1562-13.2705-78.8099,0c-16.0111,7.1652-32.1882,50.1424-32.1882,50.1424Z"/><path class="cls-1" d="M2726.3155,1448.7446s-38.9646,120.2821-38.9646,147.3879,104.2413-12.2398,100.4029-35.7669-4.1208-100.4855,22.9851-143.0548-68.537-19.8874-84.4234,31.4337Z"/><path class="cls-1" d="M2859.2226,1394.4451s-51.0095,70.7097-43.676,105.7045,19.4849,38.6851,51.3804,11.2772,86.8345-156.9883,51.0407-156.4234-58.7451,39.4417-58.7451,39.4417Z"/></g><g id="Calque_3"><path d="M1318.1982,435.0897c29.6863-51.9967,90.832-100.2295,146.5098-121.5336,5.9265-2.234,14.2808-5.3695,20.2034-7.2639,20.1296-6.7231,40.8171-12.6762,61.2521-18.3447,20.3764-5.6966,41.3254-10.5159,61.9234-15.3031,13.3786-3.2904,28.1496-6.1888,41.6313-8.8086,34.6011-5.8635,70.5365-10.1346,105.5522-12.541,49.5065-2.9478,99.2729-1.8445,148.588,3.343,14.0904,1.5506,28.1515,3.4043,42.122,6.1003.5458.1053.9029.6332.7976,1.1791-.0893.4625-.482.7896-.932.8145-56.2837,2.9622-112.2441,5.5233-168.3591,8.8188-20.8154,1.274-42.033,2.1974-62.8654,3.4754-27.6854,1.6623-56.2131,4.3428-83.7773,6.5305-5.2565.3468-15.7477,1.2942-20.9754,1.8922-8.6935.9926-17.4936,1.7221-26.1625,3.0051-18.9982,2.7759-37.9064,7.1167-56.0451,13.4325-19.7623,6.6823-38.718,16.2566-56.8811,26.4689-29.9081,17.2988-59.7014,34.9606-87.4553,55.5954-22.3145,16.5734-43.8357,34.5365-63.4898,54.2885-.3818.4227-1.0457.448-1.453.0468-.3281-.3204-.3899-.8112-.1837-1.196h0Z"/><path d="M1890.0925,281.1402c13.0924-.7614,25.7289,6.4,34.5562,15.5067,5.0258,5.4704,7.2044,12.809,9.93,19.5254,2.5649,6.5788,6.4663,12.3857,10.7635,17.9429,3.3475,4.2416,7.0151,8.3844,9.7788,13.07,1.9677,3.0754,3.2708,6.4184,4.7492,9.7314,2.649,6.6744,5.2223,13.5381,5.985,20.6854,1.3554,10.7017.3187,21.641-2.636,32.0083-1.129,3.4769-2.4095,6.9136-4.1849,10.2683-.2883.5447-.9635.7526-1.5082.4644-.2257-.1212-.3883-.2999-.4911-.5165-1.748-3.415-2.9656-6.7488-4.0964-10.0411-4.8756-13.9592-8.6262-28.1169-10.489-42.7458-.4696-3.7997-1.4165-8.1292-2.0159-11.8736-.7172-3.785-1.1178-8.4913-1.6757-12.3433-1.2655-10.0822-6.1945-19.5033-14.9094-25.0385-5.3613-3.4745-11.097-7.0397-15.3195-11.8756-6.9414-7.3235-13.2778-14.4952-19.1997-22.9195-.5672-.662-.1279-1.7961.7631-1.8488h0Z"/><path d="M2322.9315,503.9326c-7.5211-9.1704-11.7648-25.4813-9.6242-37.0584.9302-4.753,3.2019-9.4143,4.5963-14.0735,2.492-7.7022,2.1222-15.6627.971-23.6348-.977-6.556-1.1166-13.2027.0971-19.7433.955-6.5398,2.4594-13.2116,5.5487-19.328,4.5818-9.1354,12.1972-17.5375,21.5613-22.1485,3.154-1.5925,6.5864-2.6392,10.0767-3.1219.6155-.0833,1.1819.3481,1.2652.9636.0342.2405-.0167.4613-.1115.67-1.3234,3.1318-2.7363,5.7933-4.0258,8.8245-4.1332,8.9321-7.0951,18.3712-10.8412,27.4331-1.6285,3.7259-3.6332,7.8857-5.2334,11.6729-2.1443,5.6756-4.6579,11.0081-7.5159,16.4505-2.7183,5.5703-4.5155,11.5574-4.2098,17.7727.165,6.1361,3.225,12.3012,4.5196,18.2715.6599,2.9753.8054,5.9529.6982,8.9768-.2078,6.1893-.9098,12.1635-2.467,18.2467-.8274,3.1138-1.7675,6.2606-3.3262,9.5382-.3238.7803-1.4461.9553-1.9792.288h0Z"/><path d="M1238.4322,419.1727c87.0148-99.3407,221.9589-187.0153,351.6582-215.3021,39.7801-8.4369,81.1319-12.1881,121.3565-17.5424,42.1439-5.0478,85.2931-10.3106,127.504-14.1103,44.733-3.7397,90.0069-6.3307,134.8589-2.8101,18.2935,1.3918,37.1167,4.1301,55.1378,7.7874,3.5145.6355,8.6009,1.9504,12.0893,2.7459,50.5862,12.595,103.4441,15.5716,155.4639,18.009,80.4995,2.5764,161.8221,3.1001,241.9665-4.3192,7.8389-.8271,15.8744-1.847,23.6364-3.0887,56.4053-10.2731,113.9919-17.673,171.3869-13.0248,30.2606,2.9922,72.3725,9.7653,88.3216,38.5322.2555.4907.0656,1.0957-.4248,1.3515-.4559.238-1.0111.0902-1.2925-.326-2.23-3.2947-4.9068-6.2395-7.8918-8.8077-9.076-7.7344-20.3683-12.0747-31.8356-15.0101-15.4676-3.8768-31.4986-5.1407-47.4361-5.5262-54.3404-.606-108.3708,8.4629-161.3396,19.9445-4.0539.8449-8.4463,1.768-12.3403,2.4152-70.9561,11.3534-143.1255,11.9659-214.7644,10.1474-49.119-1.7021-98.1709-4.9503-146.8699-12.0067-20.2131-2.939-40.8935-7.3274-60.4939-13.2733-3.4433-.9686-8.1613-2.377-11.5725-3.1668-4.2328-1.0295-13.4124-3.4069-17.5078-4.1834-13.6506-2.9097-27.6231-5.3962-41.5015-7.0144-6.8064-.9752-17.0872-1.8803-24.0252-2.4077-2.9953-.298-9.0602-.6987-12.0704-.794-64.7472-3.3625-129.7827,3.2683-193.7598,13.1275-22.0985,3.515-50.0932,8.4216-71.9721,12.7944-27.8292,5.3872-55.4421,10.8152-82.4622,19.0299-81.0594,23.6877-157.4969,61.7188-227.548,108.7027-40.2128,27.1528-78.9808,56.6874-114.8048,89.4857-.4018.393-1.0536.3793-1.4352-.0349-.3471-.3748-.3526-.944-.0315-1.3247h0Z"/><path d="M1159.493,364.8515c48.6611-41.859,100.8579-79.547,154.6031-114.5776,64.1626-41.3256,131.0654-79.4159,202.5542-106.7271,50.5806-19.622,103.782-32.7577,156.9288-43.3347,76.9091-14.8959,155.4225-21.9965,233.7923-19.4195,43.9003,1.2271,88.3706,6.2155,131.991,11.3527,19.2234,1.9352,39.9117,3.3991,59.2102,4.2431,134.4698,5.339,308.3682,8.6375,443.1091,11.9573,27.8817.3848,56.1121.3875,84.0009,1.0493.5531.0124.9913.4708.979,1.0237-.0116.5154-.4106.931-.9125.9751-27.8406,2.4169-55.966,4.6546-83.8871,6.3596-75.9055,3.8934-152.1646,5.1578-228.1766,5.2484-71.8967-.0928-144.5667-1.5798-216.3223-6.6253-15.5808-1.087-32.7159-2.4849-48.2327-4.3419-13.243-1.4083-34.3506-4.5526-47.7363-6.3734-66.855-9.3264-134.542-17.0084-202.1292-14.4877-75.6192,2.5027-150.8622,17.3598-221.864,43.4652-59.611,22.0671-116.1425,51.4969-172.165,81.3873-84.0263,45.9196-164.8003,97.0606-244.5151,150.4043-.4585.3189-1.0926.2005-1.4033-.2643-.2848-.4246-.2014-.9882.1755-1.3143h0Z"/><path d="M2304.4275,312.7198c21.1989-9.28,43.26-15.9306,65.5867-21.6899,22.317-5.5468,44.8657-10.3911,67.8092-12.5063,22.9314-2.1287,46.153-1.6029,69.1262-2.5262,28.938-.7249,58.1666-3.5711,87.0421.966,55.1309,9.301,116.2355,43.4218,149.4885,88.8807,6.571,9.5795,13.6648,20.7927,13.1983,33.1791-.79,6.7505-1.7927,13.4579-2.489,20.2669-1.2499,11.2897-2.3019,22.6874-3.4056,34.1468-.0535.5553-.547.9622-1.1024.9087-.4502-.0433-.8027-.3772-.8917-.7974-2.3927-11.3585-3.8877-22.8251-4.8817-34.3875-.6016-6.7446-.8133-13.6081-1.0444-20.4028-.5212-3.37-2.1009-6.3533-3.9717-9.5126-5.4692-8.7314-13.0998-16.6657-20.7281-23.8664-38.7343-35.0075-84.957-62.8528-135.3208-77.5009-18.9538-5.3119-38.8288-7.0558-58.4719-6.4861-28.5346.4333-56.3622,7.7317-84.0949,13.6324-22.2619,4.5991-44.7154,7.8198-67.1894,11.2754-22.647,3.3429-45.2441,6.5238-68.1596,8.3568-.5613.0481-1.0557-.3723-1.0976-.9343-.033-.438.2192-.8324.598-1.0023h0Z"/><path d="M2792.0004,577.1523c50.4938-5.3381,101.3084-5.5879,151.9534-2.2302,22.2241,1.6807,45.0328,4.3214,66.6925,10.6745,11.6214,3.7092,22.83,9.0938,32.7955,16.1243,29.9431,20.5101,47.1193,54.6536,77.4452,74.4974.7412.5068,3.1447,1.9208,3.8943,2.4141,12.0742,7.348,20.2111,19.5767,26.7366,31.6062,16.165,30.8515,23.1841,65.6486,24.9063,100.2206,1.7427,39.2793-2.7025,80.3751-22.4577,115.3923-14.6108,24.8978-36.3665,44.9756-60.276,60.7327-30.8242,19.6471-65.3939,33.2385-101.4633,38.7202-.5497.072-1.0537-.3147-1.1261-.8641-.0647-.4933.2371-.9405.6898-1.0881,39.1911-14.6161,75.6814-34.346,106.3619-61.8596,17.4837-15.9862,33.075-34.424,42.4508-56.3751,23.3214-55.3306,21.6242-134.1272.9974-190.2372-4.9168-11.8954-11.1924-23.8545-22.0922-30.9767-23.6658-16.2622-39.8087-41.0276-61.6729-59.2054-15.467-13.0548-34.0868-21.5694-53.9597-24.8737-1.4358-.2822-4.4967-.7855-5.9665-.9445-7.8715-1.2233-16.5143-2.1272-24.4423-3.0666-43.6081-4.7567-87.3967-7.7566-131.1494-11.6107-16.7527-1.4831-33.5262-3.0468-50.3223-5.0512-.552-.0658-.946-.5667-.8801-1.1185.0563-.4723.4319-.8289.8846-.8807h0Z"/><path d="M2979.8435,659.2092c31.995,2.4587,74.0861,23.3144,85.8767,54.9412,1.4458,3.6585,2.5336,7.7191,3.439,11.5152,2.9851,13.0881,5.7204,25.8115,9.2912,38.6469,3.3022,12.7951,7.4545,25.4882,10.4686,38.4217,4.4106,19.2243,5.8462,38.8431,2.5412,58.6352-1.2217,7.1114-4.1629,14.689-7.9574,21.0766-1.4346,2.3426-3.23,5.4584-4.8873,7.6573-12.2413,17.3101-27.7897,31.992-44.4367,44.9213-6.0392,4.6073-12.2565,8.9772-18.9011,12.8336-.4897.2842-1.1171.1176-1.4012-.3721-.2018-.3475-.1764-.7644.0303-1.0787,4.1975-6.355,8.5632-12.4712,12.899-18.5495,11.6929-16.4324,25.2985-34.3121,35.4967-51.4704.9919-1.7604,2.0849-3.8008,3.1018-5.5152.8673-1.7954,1.7563-3.6301,2.6575-5.386,6.4435-15.5139,6.7182-33.356,7.0764-50.2742.6587-21.9802.2951-44.5262-7.0747-65.4831-3.616-10.2079-8.533-20.136-14.8393-28.9061-2.9967-4.0341-6.402-7.805-9.878-11.4225-7.1884-7.4223-14.8847-14.3812-23.1789-20.6254-13.0093-9.8525-26.5634-18.3228-40.9145-27.655-.4958-.2958-.6534-.9601-.3329-1.4447.2086-.3206.5671-.4863.9236-.4661h0Z"/><path d="M2677.6743,1014.7203c-14.6955.49-35.6568-5.2-48.0831-12.9725-6.9829-4.5287-13.1605-10.8249-20.3885-14.7558-7.1906-4.0195-15.0768-6.4935-23.3442-8.2045-12.3791-2.268-24.056-6.7437-35.6505-11.4678-11.5135-4.8056-21.9092-11.5416-31.8354-19.0457-6.7531-5.2138-13.1674-10.6866-18.7891-17.3123-.6014-.6878-.0222-1.8803.9077-1.7823,8.6621.6478,16.8643,2.6165,25.0525,5.0112,7.9339,2.3819,15.6921,5.2213,23.1848,8.6798,7.4608,3.4377,14.2872,7.6968,21.2893,11.9367,3.5109,2.0981,7.0511,4.141,10.4357,6.5264,6.793,4.6615,13.116,10.4722,20.2782,14.5794,3.5644,2.0516,7.2458,3.8517,11.1239,5.2157,7.717,2.821,16.5029,3.2354,24.5104,5.3571,8.0062,2.142,15.1681,6.188,22.2479,10.394,7.2317,4.5399,14.0178,9.4477,19.8457,16.0012.6007.6567.1234,1.8316-.7852,1.8395h0Z"/><path d="M1553.0647,915.7957c14.7873-6.6044,30.5593-9.516,46.4677-11.3078,15.8244-2.3871,31.7365,2.3802,47.4552,2.6243,13.2792.2003,26.2282-2.7959,39.141-5.6654,7.7029-1.7512,15.8409-2.6164,23.7271-3.159,10.1124-.888,19.9887-2.3143,29.3321-3.7706,8.7152-1.5042,17.2107-2.9773,24.5311-7.7673,7.8392-5.4117,9.4004-14.1064,9.8269-23.675-.0291-.9838,1.4145-1.3936,1.9196-.5614,3.165,4.6128,5.3329,10.1393,5.7226,16.469.942,20.7247-20.2142,32.8888-37.9383,36.5196-13.5378,3.0249-27.4059,2.1032-41.0209,1.1876-18.1995-1.1907-36.6232-5.7951-54.8571-3.1535-10.4117,1.2209-20.6469,5.1219-30.9938,7.0995-10.3521,2.011-20.8469,1.8993-31.3456,1.6167-10.7299-.4686-21.2997-1.4866-31.8141-4.4625-.5667-.1662-.8914-.7603-.7253-1.3269.0891-.304.3068-.541.5719-.6673h0Z"/><path d="M988.484,557.8231c-12.1606,6.7813-32.1147,10.9409-45.9124,9.5339-7.772-.9411-15.6344-3.789-23.3732-4.0294-7.8388-.3457-15.4898,1.1137-23.0233,3.3511-7.5254,2.3533-15.1545,4.1358-22.9419,5.0687-7.6548,1.1238-15.3252,2.2983-23.0717,2.3305-7.7745.05-15.5332-.5741-23.262-1.6859-7.9791-1.2092-15.7807-2.8125-23.457-5.7978-.5636-.2257-.8375-.8656-.6119-1.4291.1022-.2551.2908-.4517.5172-.5686,3.7716-1.9426,7.5676-3.3718,11.369-4.6846,14.8648-4.8415,30.372-7.8055,46.0072-7.5346,7.7626.3058,15.5001.4621,23.2458,1.342,7.7318.9644,15.5639,3.2002,23.3522,3.5872,3.8736.2089,7.7335.1292,11.5718-.4074,7.6813-.9712,15.2391-4.55,22.8873-6.2218,7.6539-1.6553,15.4114-1.2043,23.1561-.5491,8.0399.891,15.8287,2.3345,23.4522,5.697.8081.3463.8842,1.5801.0947,1.9978h0Z"/><path d="M866.0745,1161.6018c-10.456,2.1252-25.5613-.436-34.3253-6.395-4.7433-3.4024-8.7497-8.566-13.7638-11.3213-5.0876-2.9106-10.7566-4.0689-16.6155-4.5051-5.9011-.3322-11.6891-1.1823-17.2794-2.9188-5.5166-1.4864-11.0766-2.9322-16.2212-5.4476-10.5342-5.3171-20.4808-12.4887-27.7498-22.1113-.5107-.6803-.0753-1.7353.7722-1.8452,6.295-.9268,12.3077-.5893,18.4083.2202,5.8276.811,11.4477,2.1177,16.8195,4.0179,5.4033,1.8979,10.3359,4.8421,15.2676,7.7271,2.4745,1.4553,4.9879,2.8179,7.33,4.5895,4.6889,3.3927,8.9284,7.9942,13.9347,10.9126,2.4727,1.4596,5.057,2.6527,7.8177,3.4238,5.4822,1.6364,11.972.8644,17.7249,1.8539,2.8837.4772,5.5475,1.4801,8.0906,2.7716,5.2275,2.598,10.0543,5.7894,14.3722,9.8669,2.1976,2.1171,4.3324,4.3845,6.1893,7.3158.4553.6927.0431,1.6846-.7719,1.845h0Z"/><path d="M895.6263,1108.937c-52.6727-10.9093-138.0171-44.0158-159.6074-97.3443-1.8187-4.7254-3.1642-9.7303-3.7676-14.8716-.4926-4.4869-.5616-8.9847-.963-13.4929-5.0651-60.22-14.8923-125.1839-17.4931-185.5607-1.7222-45.5395,2.6655-93.2919,28.9396-132.1923,10.344-15.8093,24.3926-29.0042,39.8058-39.8496,45.8737-33.4004,99.7759-47.1963,156.1332-44.5307,35.8559.9616,70.4685,9.0545,106.1298,9.4666.5572-.0038,1.0117.4479,1.0109,1.0051-.0004.4858-.3459.8906-.8041.9838-8.7928,1.7924-17.7784,2.6249-26.7264,3.1216-30.9093,1.4039-61.9148-.4938-92.5297,2.024-21.2849,1.7154-42.5575,5.2622-62.8865,11.7657-24.3354,7.6153-47.1101,19.1207-68.3367,33.3434-6.8288,4.8051-13.7534,9.4899-19.8698,15.1914-40.3169,36.6387-51.9967,100.416-52.7755,152.8943-.3714,39.7896,5.9517,79.2536,15.0118,117.9493,3.4164,15.2648,8.6844,37.0361,10.9615,52.4688.4626,3.339.9943,6.8397,1.3062,10.2124,2.5607,20.9649,17.9478,37.5625,33.6909,50.9343,31.947,26.2447,69.8218,44.5333,107.2803,61.8582.0002-.0003,6.0688,2.709,6.0688,2.709.5186.2178.7596.8231.5287,1.3369-.1941.4349-.6597.6638-1.1079.5773h0Z"/><path d="M1275.4182,562.2036c-5.9252,4.3896-12.2635,7.1024-18.9812,9.4017-6.4018,1.9868-12.7909,3.8758-19.5424,3.8232-6.7175-.0707-13.8774-1.8566-20.4771-.7994-6.2987.9408-12.8926,3.843-17.2396,8.3459-.9928,1.0394-1.8121,2.2146-1.8722,2.9046.0346.2854.2395.4757.7217-.1085.6281-.8206.7701-2.3348.4521-3.3693.0031-.1578-.0302-.3241-.0871-.4674-.0197-.0986.0265-.1246.0167-.182.0027-.0491-.029-.1022.0506-.0945.3793-.0338.4556.0728.9988.2901,5.8739,2.9293,12.4041,4.5397,18.6229,6.5006,9.9161,3.3392,19.7986,6.8926,29.4754,11.0131,3.1825,1.3756,6.4245,2.8271,9.7175,4.635.7788.3961.7567,1.6164-.0381,1.9791-3.4504,1.7222-6.9529,2.766-10.4968,3.6355-20.5917,4.5862-41.1923.9234-57.4604-13.23-2.2651-1.8185-4.5554-4.4536-5.564-7.3245-1.8457-4.6188-.1352-10.1815,3.8876-12.9697,5.5109-3.7292,11.5581-3.6927,17.257-5.0532,3.4212-.7172,6.732-1.5382,9.9573-2.7385,6.4523-2.2726,12.4819-6.8254,19.0016-9.3794,3.2488-1.2927,6.6125-1.9885,10.0207-2.3442,6.9039-.7704,13.8142-.7127,20.7312.4862,3.5111.6444,7.0332,1.471,10.6248,3.058.7953.3317.9308,1.4907.223,1.9875h0Z"/><path d="M1265.6497,650.1879c-1.0608-3.9525-1.5852-7.4494.585-10.5697.4745-.6586,1.1592-1.0524,2.1874-1.0133,2.9217.0538,7.0812,2.9355,8.6082-.4615.9592-2.2385.1204-5.642,1.1551-7.9672.9199-1.7963,1.6867-4.1864,3.463-5.0595,2.4293-1.2095,6.0124-.9257,8.9728-.0021,1.2914.3707,2.6969.8851,4.3932,1.766.6408.3326,1.0751.9187,1.2434,1.5665,1.1006,4.6008,1.3611,9.8559-1.3162,13.4174-1.2528,1.5314-3.7549,1.7367-5.7135,2.2242-2.4975.4799-5.6249-1.1094-8.0215-.6838-3.6548.7146-1.793,5.4231-2.4035,8.2787-.1953,1.0102-.7342,1.5876-1.4834,1.9-3.5356,1.405-6.8114.0979-10.4265-1.8292-.6208-.3591-1.0488-.9312-1.2434-1.5667h0Z"/><path d="M1174.1608,1545.6942c157.6798,80.0004,315.8197,159.4259,481.0156,222.6387,13.4217,5.0852,28.9875,10.7144,42.6614,15.2004,18.7452,6.3099,38.8253,12.1991,57.8927,16.9584,107.8891,26.7198,216.6502,53.1958,325.9243,73.0119,79.0722,13.9403,159.2667,27.2333,239.4678,27.6503,19.9667.0331,41.0489-.0051,60.9921.4591,105.9591,1.5531,212.0063,13.9684,317.8085,10.7881,56.1225-2.457,115.0846-10.629,161.9317-43.7689,0,0,5.965-4.3789,5.965-4.3789l2.984-2.1946c.9885-.7418,1.9377-1.5445,2.9091-2.3139,0,0,5.8104-4.6551,5.8104-4.6551,13.4668-11.2456,26.3726-23.2651,38.9575-35.4968-.0001-.0001,5.2473-5.2495,5.2473-5.2495,0,0,1.3147-1.3139,1.3147-1.3139.428-.4464.8162-.9248,1.2264-1.3857,0,0,2.4336-2.7921,2.4336-2.7921l2.4386-2.795c11.0115-13.17,20.0549-28.5372,24.3808-45.2589,1.9146-8.3117,3.1352-17.2911,1.6521-25.7438-.1101-.5408.239-1.0684.7798-1.1785.5112-.1041,1.0117.2062,1.1578.6969,2.0559,7.5555,1.9109,15.5249,1.0194,23.22-1.6247,12.8761-6.1869,25.3062-12.3817,36.669-1.3031,2.1234-2.5062,4.7694-3.899,6.7433.0001,0-4.2887,6.4984-4.2887,6.4984-.9862,1.5223-3.4317,4.676-4.6411,6.2379-4.5942,6.137-10.0076,12.046-15.1958,17.5443-14.0589,14.7666-28.295,29.7877-44.17,42.6757-40.6023,34.4143-92.1273,48.2564-143.8577,54.5402-30.5255,3.5436-61.4046,4.5902-92.1022,4.4942-76.0317-.3879-152.0601-6.5498-227.8488-10.2232-23.2806-1.0929-52.1477-2.3009-75.5508-2.605-19.7772-.3063-41.5365-.9405-61.2724-2.686,0,.0001-7.6584-.5804-7.6584-.5804,0,0-1.9141-.1476-1.9141-.1476,0,0-1.9042-.2116-1.9042-.2116,0,0-3.8082-.4233-3.8082-.4233-70.356-7.2037-141.0749-22.7752-209.8185-38.9586-87.6691-20.7544-178.237-43.5625-266.3824-61.5884-10.4184-2.0907-41.0126-8.2483-52.2094-10.743-31.8655-7.3797-64.511-16.911-95.4758-27.4115-124.8715-43.1688-243.0535-103.4741-358.1723-167.7563-35.2716-20.0258-70.2332-40.5839-104.4212-62.4357-.4658-.2977-.602-.9167-.3043-1.3825.2807-.4413.853-.5862,1.3063-.3485h0Z"/><path d="M1319.4488,1539.4299c139.2681,57.7398,282.4319,121.395,420.4074,182.3437,13.7214,5.8452,33.1773,14.4867,46.7569,19.8702,5.8945,2.4198,14.9131,6.042,20.5909,8.3429.0002,0,2.9689,1.09,2.9689,1.09,0,0,23.8092,8.6148,23.8092,8.6148,64.3307,20.9398,131.4546,34.0765,198.3626,43.6102,66.9656,9.548,134.834,15.3318,202.2533,20.1881,50.0945,3.4171,101.7857,5.1271,151.9767,4.4301,66.5414-.6625,136.5083.2276,202.5628-5.7643,47.5549-4.5562,95.519-12.5665,139.1357-32.6564,9.423-4.3051,18.4509-9.3041,27.1321-14.8897,5.3086-3.3045,10.3011-6.9489,15.3489-10.6842,28.9319-21.6,57.9889-43.0642,87.3612-64.1044.4496-.322,1.0751-.2187,1.3971.2309.301.4201.2268.9969-.1505,1.3331-28.7095,25.3272-57.6451,50.3341-86.9147,74.9805-9.9957,8.3553-21.0275,15.7574-32.3647,22.167-102.2084,57.3347-263.1831,50.3683-379.0572,50.0114-19.7266-.3074-44.3253-1.2764-64.0521-2.525-140.3197-8.2582-279.1076-34.2316-415.8688-65.7403-24.3492-5.7549-53.2324-13.5456-77.1324-21.1612-14.3038-4.8534-31.1848-10.3213-45.3727-15.5441-88.1074-31.0732-173.8246-69.9009-258.1239-109.9926-61.3652-29.3236-122.2225-59.6614-181.8913-92.347-.4845-.267-.661-.8761-.3941-1.3606.2479-.4502.7942-.6333,1.2586-.443h0Z"/><path d="M2163.0225,1756.0734c10.7134-3.7716,21.6395-5.5585,32.7528-6.7879,10.9072-1.0343,21.8326-1.8639,32.7529-.5531,10.9177,1.2915,21.8353,4.5203,32.7529,5.1231,10.9853.7027,21.8982-.3757,32.7529-2.2572,10.8305-1.9941,21.771-3.4225,32.7529-3.9768,10.9176-.759,21.8352-1.5623,32.7529-1.2355,22.0941.8829,44.2086,3.2965,65.5058,9.687.5522.1786.8554.7708.6772,1.3231-.1071.3319-.3696.5757-.6772.6772-10.7703,3.3823-21.6944,5.3337-32.7528,6.9021-10.8806,1.4812-21.8002,2.4684-32.7529,2.7853-16.3832.2684-32.8027-1.044-49.1294-2.6396-10.9098-1.3444-21.7959-3.9358-32.7528-4.6823-5.4588-.372-10.9177-.507-16.3765-.1477-10.9176.6028-21.8352,3.8316-32.7529,5.123-10.9208,1.311-21.845.4813-32.7529-.5529-11.1139-1.2297-22.0359-3.0161-32.7529-6.7878-.5523-.2012-.837-.8119-.6359-1.3642.1113-.3058.3528-.5313.6359-.6359h0Z"/></g></svg>