<?xml version="1.0" encoding="UTF-8"?><svg id="Calque_2" xmlns="http://www.w3.org/2000/svg" width="2695.533" height="2188.3262" viewBox="0 0 2695.533 2188.3262"><path d="M302.8677,505.6877s63.2469-103.8804,162.635-302.6817S799.8078,17.7828,971.4781,26.8181s618.9164-9.0353,867.3865,36.1411,456.2814,90.3528,578.2577,230.3995,0,162.635,153.5997,262.023,94.8704,356.8934,72.2822,402.0698-117.4586,121.9762-99.388,393.0345,49.694,478.8696,4.5176,582.7753-131.0115,249.5576-316.2347,230.9433-402.0698-9.579-555.6695-59.273-447.2462-135.5291-560.1871-207.8113-456.2814-185.2232-528.5636-262.023-212.329-234.9172-284.6112-383.9992S13.7388,1029.7337,22.7741,853.5458s234.9172-269.0336,280.0936-347.8581Z" fill="none" stroke="#ccc" stroke-linecap="round" stroke-linejoin="round" stroke-width="45"/><path d="M316.4206,1020.6984s-76.7998-108.4233-31.6235-234.9172,176.1879-144.5644,252.9877-131.0115,121.9762,99.388,266.5406,108.4233,225.8819-70.8441,252.9877-112.2219" fill="none" stroke="#ccc" stroke-linecap="round" stroke-linejoin="round" stroke-width="45"/><path d="M1165.7365,469.5466s-85.8351-36.1411-230.3995,0-185.2232,131.0115-131.0115,131.0115,203.2937-36.1411,334.3052,0,198.7761,94.8704,266.5406,31.6235-126.681-146.6185-239.4348-162.635Z" fill="none" stroke="#ccc" stroke-linecap="round" stroke-linejoin="round" stroke-width="45"/><path d="M2001.4995,514.723s-81.3175-10.6679-180.7055,42.1013-171.6702,34.6986-144.5644,61.8044,63.2469,36.1411,221.3643,0,275.5759-10.6679,252.9877-61.8044-149.0821-42.1013-149.0821-42.1013Z" fill="none" stroke="#ccc" stroke-linecap="round" stroke-linejoin="round" stroke-width="45"/><path d="M2060.2288,772.2283s54.2117,76.7998,131.0115,36.1411,94.8704-148.2048,252.9877-35.9921" fill="none" stroke="#ccc" stroke-linecap="round" stroke-linejoin="round" stroke-width="45"/><path d="M375.1499,912.2751s117.4586-103.9057,131.0115,0c3.3882,25.9764,14.6823,59.5763,30.7764,96.7057,5.9915,13.8224,12.6481,28.1339,19.8098,42.7234,50.5508,102.9799,126.2614,219.8059,170.778,276.1936,67.7646,85.8351,361.411,257.5054,510.4931,293.6465s650.5399,67.7646,822.2101,31.6235,266.5406-72.2822,307.1994-252.9877,45.1764-352.3758,0-429.1756-40.6587-196.2663-63.2469-104.9096-49.694,258.5093-302.6817,290.1327-489.7735,4.5176-653.733-36.1411c-163.9595-40.6587-642.8291-189.7408-728.6642-243.9524s-162.635,52.764-103.9057-104.6295" fill="none" stroke="#ccc" stroke-linecap="round" stroke-linejoin="round" stroke-width="45"/><path d="M536.9378,1008.9808s249.3171,161.8702,475.199,225.1172,611.4429,152.5997,899.7908,120.9762,404.9041-97.896,486.2216-164.4029" fill="none" stroke="#ccc" stroke-linecap="round" stroke-linejoin="round" stroke-width="45"/><path d="M808.4691,953.9943s5.1768,126.7514,36.5151,179.6451,60.0579,64.3718,60.0579,64.3718" fill="none" stroke="#ccc" stroke-linecap="round" stroke-linejoin="round" stroke-width="45"/><line x1="1233.5011" y1="1094.1631" x2="1182.7322" y2="1278.3174" fill="none" stroke="#ccc" stroke-linecap="round" stroke-linejoin="round" stroke-width="45"/><line x1="1540.2329" y1="1155.3593" x2="1540.2329" y2="1344.9351" fill="none" stroke="#ccc" stroke-linecap="round" stroke-linejoin="round" stroke-width="45"/><line x1="1784.6544" y1="1170.0296" x2="1811.795" y2="1361.3484" fill="none" stroke="#ccc" stroke-linecap="round" stroke-linejoin="round" stroke-width="45"/><line x1="2060.2288" y1="1145.5991" x2="2085.7443" y2="1328.7174" fill="none" stroke="#ccc" stroke-linecap="round" stroke-linejoin="round" stroke-width="45"/><line x1="2191.2497" y1="1084.2045" x2="2233.4907" y2="1286.8011" fill="none" stroke="#ccc" stroke-linecap="round" stroke-linejoin="round" stroke-width="45"/><polyline points="2343.9697 1228.8662 2252.2284 1013.8006 2399.4981 1155.3593" fill="none" stroke="#ccc" stroke-linecap="round" stroke-linejoin="round" stroke-width="45"/><line x1="2289.7534" y1="923.3243" x2="2389.294" y2="1030.4864" fill="none" stroke="#ccc" stroke-linecap="round" stroke-linejoin="round" stroke-width="45"/><path d="M760.5061,1361.6492s70.9252-44.6882,66.4075-111.502-10.2371-89.468-10.2371-89.468" fill="none" stroke="#ccc" stroke-linecap="round" stroke-linejoin="round" stroke-width="45"/><path d="M1078.9127,1560.3656s84.565-81.127,82.3061-164.7033-38.3905-129.9734-38.3905-129.9734c0,0,341.3285,179.781,752.4336,157.1928s509.2015-110.5525,509.2015-110.5525" fill="none" stroke="#ccc" stroke-linecap="round" stroke-linejoin="round" stroke-width="45"/><line x1="1479.4624" y1="1653.8498" x2="1497.1303" y2="1394.4451" fill="none" stroke="#ccc" stroke-linecap="round" stroke-linejoin="round" stroke-width="45"/><line x1="1746.1668" y1="1668.2109" x2="1784.6544" y2="1424.9085" fill="none" stroke="#ccc" stroke-linecap="round" stroke-linejoin="round" stroke-width="45"/><line x1="1927.1809" y1="1667.0512" x2="1999.2288" y2="1413.612" fill="none" stroke="#ccc" stroke-linecap="round" stroke-linejoin="round" stroke-width="45"/><line x1="2085.7443" y1="1647.6499" x2="2153.3685" y2="1394.4451" fill="none" stroke="#ccc" stroke-linecap="round" stroke-linejoin="round" stroke-width="45"/><path d="M2252.2284,1588.168s5.4421-47.8998-18.7377-67.1205,62.7847-166.0441,62.7847-166.0441" fill="none" stroke="#ccc" stroke-linecap="round" stroke-linejoin="round" stroke-width="45"/><path d="M1706.1589,617.4992s77.9293,1.6941,132.1409-28.7999,88.881-22.0235,88.881-22.0235" fill="none" stroke="#ccc" stroke-linecap="round" stroke-linejoin="round" stroke-width="45"/><path d="M937.0311,513.8387s35.5764,18.9548,27.1058,35.896,45.7411-10.1647,93.1763,0,71.1528,18.951,64.3763-15.0892,4.2344-45.8989-42.7768-45.8989-177.458,7.8314-141.8816,25.0921Z" fill="none" stroke="#ccc" stroke-linecap="round" stroke-linejoin="round" stroke-width="45"/><path d="M1387.3942,869.9222s-81.0463,5.0823-97.9874,38.9646-23.7176,74.8234,6.7765,100.0939,18.6353,11.7176,18.6353,11.7176" fill="none" stroke="#ccc" stroke-linecap="round" stroke-linejoin="round" stroke-width="45"/><path d="M1399.5243,991.8985s1.6941-23.7176,54.2117-22.0235,86.497,10.9684,86.497,10.9684" fill="none" stroke="#ccc" stroke-linecap="round" stroke-linejoin="round" stroke-width="45"/><path d="M1677.359,1061.3571s38.4029,50.8234,107.2954,0,87.5277-106.4876,116.3277-114.2319,64.3763-12.8267,18.6353-34.8501-73.3738-53.6158-121.3926-92.0313-32.8141-178.6008-32.8141-178.6008" fill="none" stroke="#ccc" stroke-linecap="round" stroke-linejoin="round" stroke-width="45"/><path d="M982.7722,513.8387s-3.3882,18.9548,16.9411,18.9548,60.1402-5.0823,79.1994,0,28.376-12.498,0-18.9548-113.0817-18.9548-96.1406,0Z" fill="none" stroke="#ccc" stroke-linecap="round" stroke-linejoin="round" stroke-width="45"/><path d="M529.5966,889.7935s5.0823,63.6185,37.2705,91.05,266.3088,187.8607,260.2535,149.4077-19.1793-154.559-60.3481-176.2568-230.6159-121.6213-237.176-64.2008Z" fill="none" stroke="#ccc" stroke-linecap="round" stroke-linejoin="round" stroke-width="45"/><path d="M1012.7217,1048.4556s-154.6977-69.1346-170.1397-56.5908-25.2168,52.1793,0,89.9614,30.0201,66.5821,74.2066,83.5232,61.1276,27.6592,126.351,42.6296,122.6515,43.1076,139.5926,12.3368,23.8894-107.9794-3.2165-124.6728-102.4881-20.0816-166.7941-47.1875Z" fill="none" stroke="#ccc" stroke-linecap="round" stroke-linejoin="round" stroke-width="45"/><path d="M1217.8357,1164.1334s-25.8132,65.6844-9.7191,86.0138,85.6912,10.2133,153.3729,28.1702,135.4369,51.8392,146.4533,19.651,27.9482-93.0096,0-111.7282-137.4823-40.7938-176.7423-50.0697c-50.2709-11.8774-97.6995-14.8372-113.3648,27.9629Z" fill="none" stroke="#ccc" stroke-linecap="round" stroke-linejoin="round" stroke-width="45"/><path d="M1574.8651,1203.098s-20.3294,87.6767,0,108.2147,49.1293,10.8832,110.1174,17.4047,93.1363,16.269,95.6974-17.4047-2.0743-91.2736-17.5448-108.2147-56.1292-8.3039-120.5055-16.8578-67.7646,16.8578-67.7646,16.8578Z" fill="none" stroke="#ccc" stroke-linecap="round" stroke-linejoin="round" stroke-width="45"/><path d="M1822.2058,1219.9131s0,83.1377,16.9411,101.7729,182.1429,9.6259,211.7643-10.3733-1.7744-130.2382-20.3695-133.6264-221.8888-8.7227-208.3359,42.2268Z" fill="none" stroke="#ccc" stroke-linecap="round" stroke-linejoin="round" stroke-width="45"/><path d="M2093.264,1175.6603s-10.0974,118.9199,26.2924,118.9199,95.0261-9.2427,92.8138-44.433-13.3847-116.7228-49.9299-121.6338-69.1763,47.1469-69.1763,47.1469Z" fill="none" stroke="#ccc" stroke-linecap="round" stroke-linejoin="round" stroke-width="45"/><path d="M2229.244,1103.1453s-.4508,122.3321,28.3491,134.013,46.3058,1.5162,42.6352-37.4485-24.5647-130.4468-47.9999-128.7527-22.9845,32.1882-22.9845,32.1882Z" fill="none" stroke="#ccc" stroke-linecap="round" stroke-linejoin="round" stroke-width="45"/><path d="M2325.8633,1128.5134s1.1885,55.985,26.6003,55.9672-26.6003-55.9672-26.6003-55.9672Z" fill="none" stroke="#ccc" stroke-linecap="round" stroke-linejoin="round" stroke-width="45"/><path d="M2296.2754,1008.9808s-5.483,7.7647,29.5879,43.3411,64.0407,53.2222,58.6002,10.1647-77.5728-132.2248-84.2351-70.5881" fill="none" stroke="#ccc" stroke-linecap="round" stroke-linejoin="round" stroke-width="45"/><path d="M595.6671,1094.1631s118.588,223.7175,155.8585,217.1497,52.3875-72.6474,42.2878-113.3016-247.2756-167.606-198.1463-103.8481Z" fill="none" stroke="#ccc" stroke-linecap="round" stroke-linejoin="round" stroke-width="45"/><path d="M843.0077,1234.1253s-11.4774,123.4401-34.5387,127.5239,114.162,70.1542,186.1619,122.6718,92.3292,64.3763,121.1292,0,15.2833-171.1055-18.8908-188.0467-269.7486-166.0232-253.8616-62.149Z" fill="none" stroke="#ccc" stroke-linecap="round" stroke-linejoin="round" stroke-width="45"/><path d="M1299.3283,1361.3484s-60.4893-15.6898-96.4944-32.631-24.2824,3.1333-20.1017,74.2861-11.0663,104.836-36.478,125.2649-35.9226,37.3701,56.5797,57.6994,229.7256,52.5175,244.9726,23.7176,23.855-128.4434,22.0721-166.0232c-2.3351-49.2171-170.5503-82.3139-170.5503-82.3139Z" fill="none" stroke="#ccc" stroke-linecap="round" stroke-linejoin="round" stroke-width="45"/><path d="M1507.9429,1471.5857s-9.2588,86.4044,0,138.0998,73.6987,40.8936,136.3809,44.1644,75.6704-27.6042,91.1998-93.4842,31.9058-101.4564,0-113.3152-199.6234-72.8469-227.5807,24.5352Z" fill="none" stroke="#ccc" stroke-linecap="round" stroke-linejoin="round" stroke-width="45"/><path d="M1399.5243,1344.9351s454.5872,97.8265,752.6802,16.4133c207.2528-56.6035,232.259-101.4928,232.259-101.4928" fill="none" stroke="#ccc" stroke-linecap="round" stroke-linejoin="round" stroke-width="45"/><path d="M1866.5351,1447.0505s-35.0717,5.0823-49.8652,16.9411-16.4876,48.7483-24.9582,96.374-16.9411,84.5899,0,87.2842,101.5145,23.0237,120.2159-15.9409,93.2425-181.4585,61.0543-189.7408-106.4468,5.0823-106.4468,5.0823Z" fill="none" stroke="#ccc" stroke-linecap="round" stroke-linejoin="round" stroke-width="45"/><path d="M2008.5583,1489.4033s-32.1882,99.1332-33.8823,131.7312,81.4213,8.8803,98.3105-6.3667,44.0623-156.1905,46.5699-175.5068-49.1562-13.2705-78.8099,0c-16.0111,7.1652-32.1882,50.1424-32.1882,50.1424Z" fill="none" stroke="#ccc" stroke-linecap="round" stroke-linejoin="round" stroke-width="45"/><path d="M2167.8051,1448.7446s-38.9646,120.2821-38.9646,147.3879,104.2413-12.2398,100.4029-35.7669-4.1208-100.4855,22.9851-143.0548-68.537-19.8874-84.4234,31.4337Z" fill="none" stroke="#ccc" stroke-linecap="round" stroke-linejoin="round" stroke-width="45"/><path d="M2300.7121,1394.4451s-51.0095,70.7097-43.676,105.7045,19.4849,38.6851,51.3804,11.2772,86.8345-156.9883,51.0407-156.4234-58.7451,39.4417-58.7451,39.4417Z" fill="none" stroke="#ccc" stroke-linecap="round" stroke-linejoin="round" stroke-width="45"/></svg>