<?xml version="1.0" encoding="UTF-8"?><svg id="Calque_3" xmlns="http://www.w3.org/2000/svg" width="2695.533" height="2188.3262" viewBox="0 0 2695.533 2188.3262"><path d="M760.5061,435.6643s84.0657-119.7174,266.3892-153.5997,360.4989-20.3294,360.4989-20.3294" fill="none" stroke="#ccc" stroke-linecap="round" stroke-linejoin="round" stroke-width="20"/><path d="M1331.2006,282.0646s71.1472,29.3646,68.3237,137.788" fill="none" stroke="#ccc" stroke-linecap="round" stroke-linejoin="round" stroke-width="20"/><path d="M1765.4106,503.7886s-15.1669-104.2654,32.8141-138.1477" fill="none" stroke="#ccc" stroke-linecap="round" stroke-linejoin="round" stroke-width="20"/><path d="M680.6551,419.8526s165.4149-178.4467,393.2951-216.8466,325.2362-38.3999,414.3462-13.5529,335.7535,27.1058,423.6313,9.0353,221.1481-31.6235,250.5127,18.0706" fill="none" stroke="#ccc" stroke-linecap="round" stroke-linejoin="round" stroke-width="20"/><path d="M601.5965,365.6409s229.4225-178.4467,425.2988-239.4348,345.5879-38.3999,452.5671-24.847,451.7897,13.5529,519.7665,11.2941l67.9768-2.2588" fill="none" stroke="#ccc" stroke-linecap="round" stroke-linejoin="round" stroke-width="20"/><path d="M1746.1668,313.6881s192.6505-49.694,280.7444-31.6235,166.042,90.3528,164.3385,117.4586.0274,53.9607.0274,53.9607" fill="none" stroke="#ccc" stroke-linecap="round" stroke-linejoin="round" stroke-width="20"/><path d="M2233.4907,578.1523s146.9257-.1165,210.7373,13.4034,77.3645,63.214,120.2821,90.3198,65.5058,176.1879,15.8117,248.4701-146.8232,93.9826-146.8232,93.9826" fill="none" stroke="#ccc" stroke-linecap="round" stroke-linejoin="round" stroke-width="20"/><path d="M2421.0377,660.1646s64.4138,19.914,82.4843,62.6006,29.3646,116.0983,15.8117,147.157-63.2469,77.203-63.2469,77.203" fill="none" stroke="#ccc" stroke-linecap="round" stroke-linejoin="round" stroke-width="20"/><path d="M2119.5564,1013.8006s-84.0608-35.8824-131.0451-59.8063l-46.9844-23.9239" fill="none" stroke="#ccc" stroke-linecap="round" stroke-linejoin="round" stroke-width="20"/><path d="M994.631,916.7927s117.4586-9.0353,153.5997-9.0353,79.0587-6.3502,67.7646-44.9633" fill="none" stroke="#ccc" stroke-linecap="round" stroke-linejoin="round" stroke-width="20"/><line x1="429.9262" y1="556.8242" x2="244.8848" y2="565.5954" fill="none" stroke="#ccc" stroke-linecap="round" stroke-linejoin="round" stroke-width="20"/><line x1="307.95" y1="1160.6792" x2="181.9951" y2="1107.9799" fill="none" stroke="#ccc" stroke-linecap="round" stroke-linejoin="round" stroke-width="20"/><path d="M337.4055,1107.9799s-150.3539-45.4933-155.4104-116.0814-66.3509-270.4544,37.861-350.2554,201.0349-43.2779,266.5406-50.0873" fill="none" stroke="#ccc" stroke-linecap="round" stroke-linejoin="round" stroke-width="20"/><path d="M716.7962,561.2098s-103.9057,11.6588-81.3175,27.7623,63.2469,16.1036,63.2469,16.1036" fill="none" stroke="#ccc" stroke-linecap="round" stroke-linejoin="round" stroke-width="20"/><line x1="707.761" y1="650.9712" x2="737.1256" y2="627.6639" fill="none" stroke="#ccc" stroke-linecap="round" stroke-linejoin="round" stroke-width="20"/><path d="M615.1494,1546.5597s363.6699,210.5137,578.2577,257.9489,425.7027,106.1645,572.0036,106.1645,299.9005,20.3294,406.065,9.0353,140.0468-45.1764,189.7408-94.8704,38.4222-89.9959,38.4222-89.9959" fill="none" stroke="#ccc" stroke-linecap="round" stroke-linejoin="round" stroke-width="20"/><path d="M760.5061,1540.3316s381.5128,182.8595,514.5007,223.5182,371.366,74.541,536.7882,74.541,312.7171,2.2588,400.5752-67.7646l87.8581-70.0234" fill="none" stroke="#ccc" stroke-linecap="round" stroke-linejoin="round" stroke-width="20"/><line x1="1604.5121" y1="1757.0734" x2="1866.5351" y2="1757.0734" fill="none" stroke="#ccc" stroke-linecap="round" stroke-linejoin="round" stroke-width="20"/></svg>